{"title":"Judgment.Night.1993.DVDRip.XviD.AC3-BHRG","uid":12888797,"size":1320802194,"categoryP":"video","categoryS":"movies","magnet":"?xt=urn:btih:c1424ae1e74f49718a93c8d4e7ad9d30c768f108&amp;dn=Judgment.Night.1993.DVDRip.XviD.AC3-BHRG&amp;tr=udp%3A%2F%2Ftracker.leechers-paradise.org%3A6969&amp;tr=udp%3A%2F%2Fzer0day.ch%3A1337&amp;tr=udp%3A%2F%2Fopen.demonii.com%3A1337&amp;tr=udp%3A%2F%2Ftracker.coppersurfer.tk%3A6969&amp;tr=udp%3A%2F%2Fexodus.desync.com%3A6969","seeders":0,"leechers":1,"uploader":"TvTeam","files":4,"time":1449082971,"description":"------------------------------------------------------------------------\r\n\r  https://www.torrenting.com\r\n\r\nSign up is OPEN - for time being. Come and have fun.\r\n\r\n------------------------------------------------------------------------General:\r\n\r\nComplete name                            : Judgment.Night.1993.DVDRip.XviD.AC3-BHRG.avi\r\nFormat                                   : AVI\r\nFormat/Info                              : Audio Video Interleave\r\nFile size                                : 1.23 GiB\r\nDuration                                 : 1h 49mn\r\nOverall bit rate                         : 1 605 Kbps\r\n\r\nVideo:\r\n\r\nID                                       : 0\r\nFormat                                   : MPEG-4 Visual\r\nFormat profile                           : Advanced   \r\nFormat settings, BVOP                    : 2\r\nFormat settings, QPel                    : No\r\nFormat settings, GMC                     : No warppoints\r\nFormat settings, Matrix                  : Default (H.263)\r\nCodec ID                                 : XVID\r\nCodec ID/Hint                            : XviD\r\nDuration                                 : 1h 49mn\r\nBit rate                                 : 1 150 Kbps\r\nWidth                                    : 720 pixels\r\nHeight                                   : 304 pixels\r\nDisplay aspect ratio                     : 2.35:1\r\nFrame rate                               : 23.976 fps\r\nColor space                              : YUV\r\nChroma subsampling                       : 4:2:0\r\nBit depth                                : 8 bits\r\nScan type                                : Progressive\r\nCompression mode                         : Lossy\r\nBits/(Pixel*Frame)                       : 0.219\r\nStream size                              : 902 MiB (72%)\r\nWriting library                          : XviD 1.2.1 (UTC 2008-12-04)\r\n\r\nAudio:\r\n\r\nID                                       : 1\r\nFormat                                   : AC-3\r\nFormat/Info                              : Audio Coding 3\r\nMode extension                           : CM (complete main)\r\nFormat settings, Endianness              : Big\r\nCodec ID                                 : 2000\r\nDuration                                 : 1h 49mn\r\nBit rate mode                            : Constant\r\nBit rate                                 : 448 Kbps\r\nChannel(s)                               : 6 channels\r\nChannel positions                        : Front: L C R, Side: L R, LFE\r\nSampling rate                            : 48.0 KHz\r\nCompression mode                         : Lossy\r\nStream size                              : 352 MiB (28%)\r\nAlignment                                : Aligned on interleaves\r\nInterleave, duration                     : 64 ms (1.53 video frames)\r\nInterleave, preload duration             : 192 ms\r\nTitle                                    : VTS_01_1 T80 3_2ch 448Kbps DELAY 0ms","torrent":{"xt":"urn:btih:c1424ae1e74f49718a93c8d4e7ad9d30c768f108","amp;dn":"Judgment.Night.1993.DVDRip.XviD.AC3-BHRG","amp;tr":["udp%3A%2F%2Ftracker.leechers-paradise.org%3A6969","udp%3A%2F%2Fzer0day.ch%3A1337","udp%3A%2F%2Fopen.demonii.com%3A1337","udp%3A%2F%2Ftracker.coppersurfer.tk%3A6969","udp%3A%2F%2Fexodus.desync.com%3A6969"],"infoHash":"c1424ae1e74f49718a93c8d4e7ad9d30c768f108","infoHashBuffer":{"type":"Buffer","data":[193,66,74,225,231,79,73,113,138,147,200,212,231,173,157,48,199,104,241,8]},"announce":[],"urlList":[]}}